<svg width="496" height="496" viewBox="0 0 496 496" fill="none" xmlns="http://www.w3.org/2000/svg">
<g clip-path="url(#clip0_951_104)">
<path fill-rule="evenodd" clip-rule="evenodd" d="M245.668 296.609L227.812 296.509L225.679 297.352L223.943 297.203L221.414 298.145L220.868 299.483L223.844 303.793L225.034 308.402L226.82 315.041L224.935 317.767L224.638 319.154L226.076 323.267L227.614 327.429L229.399 329.906L229.697 333.771L229.002 338.875L227.018 341.898L223.497 346.407L222.058 349.182L220.025 355.375L219.628 358.299L217.495 364.592L216.553 370.637L217.049 374.948L219.975 373.61L223.546 372.47L227.415 372.669L230.937 375.79L231.879 375.295L256.084 374.997L260.151 378.268L274.585 379.259L285.695 376.434L281.926 372.173L278.057 366.574L278.85 344.772L291.399 344.821L290.903 342.492L291.895 339.916L290.903 336.695L291.647 333.375L291.052 331.244L288.324 330.848L284.554 331.839L281.926 331.69L280.438 332.334L280.884 324.159L278.95 321.632L278.553 317.42L279.495 313.258L278.305 310.631L278.255 306.32L270.914 306.37L271.46 303.892L268.385 303.942L268.038 305.131L264.268 305.379L262.73 309.393L261.788 311.077L258.465 310.136L256.481 311.077L252.463 311.622L250.182 308.055L248.842 305.825L247.106 301.712L245.668 296.609ZM222.158 295.271L222.356 292.298L223.348 290.563L225.58 289.126L223.298 286.748L221.463 287.888L218.983 290.861L220.62 296.014L222.158 295.271Z" fill="#0C0C0F" stroke="white" stroke-linejoin="round"/>
<path fill-rule="evenodd" clip-rule="evenodd" d="M331.825 275.549L331.527 272.874L328.303 272.428L326.418 276.342L322.748 275.797L324.236 278.919L324.286 280.108L326.418 286.649V286.946L327.014 286.847L329.246 284.369L331.676 280.802L333.164 279.365L333.114 277.135L331.825 275.549Z" fill="#0C0C0F" stroke="white" stroke-linejoin="round"/>
<path fill-rule="evenodd" clip-rule="evenodd" d="M168.639 176.4L164.027 172.436L161.894 172.485L159.86 174.467L158.571 176.548L155.595 177.143L154.355 180.165L152.321 180.958L151.527 184.526L153.363 186.557L155.495 188.985L155.694 192.355L156.934 193.742L156.686 209.499L158.174 214.207L163.183 213.414L163.481 202.364L163.332 198.004L164.473 193.693L166.308 191.562L169.235 187.35L168.59 185.517L169.78 182.742L168.391 178.679L168.639 176.4Z" fill="#0C0C0F" stroke="white" stroke-linejoin="round"/>
<path fill-rule="evenodd" clip-rule="evenodd" d="M149.146 154.003H145.278L143.79 152.715L140.466 153.656L134.862 156.53L133.721 158.661L129.058 161.733L128.215 163.517L125.686 164.904L122.809 163.963L121.122 165.648L120.23 170.355L115.418 176.004L115.567 178.332L113.881 181.256L114.278 185.22L117.006 186.706L118.047 188.986L120.726 190.423L122.858 188.738L125.686 188.441L129.802 190.225L129.009 185.071L129.158 181.157L139.623 180.859L142.302 181.355L144.236 180.265L147.014 180.81L152.321 180.959L154.354 180.166L155.594 177.143L158.57 176.549L159.86 174.467L160.009 169.76L153.065 168.224L152.866 164.904L149.444 160.445L148.65 157.323L149.146 154.003Z" fill="#0C0C0F" stroke="white" stroke-linejoin="round"/>
<path fill-rule="evenodd" clip-rule="evenodd" d="M297.898 377.921L296.807 377.426L293.385 378.962H291.599L287.681 381.638L285.498 378.813L276.223 381.241L271.759 381.439L270.817 405.868L264.964 406.115L264.27 426.134L265.857 427.125L269.081 433.666L268.337 437.828L269.577 440.256L273.793 439.562L276.868 436.49L279.745 434.409L281.332 431.138L284.308 429.553L286.738 430.395L289.466 432.328L294.228 432.625L298.097 431.039L298.791 428.909L299.982 425.638L303.206 425.093L305.14 422.517L307.322 417.908L312.878 412.805L321.458 407.751L317.838 404.679L313.274 403.638L311.737 399.278L311.836 396.85L309.306 396.106L302.858 388.575L301.122 384.611L299.982 383.421L297.898 377.921Z" fill="#0C0C0F" stroke="white" stroke-linejoin="round"/>
<path fill-rule="evenodd" clip-rule="evenodd" d="M291.153 197.26L290.657 196.913L288.573 194.931L288.127 192.8L289.069 189.976L289.02 187.152L285.449 182.89L284.705 179.967L280.885 181.106L277.909 183.881L273.644 191.363L268.039 194.535L262.186 194.138L260.5 194.733L261.095 197.161L257.97 199.539L255.441 202.215L247.852 204.841L246.364 203.305L245.322 203.156L244.231 204.94L239.271 205.436L236.245 212.373L234.807 213.661L234.41 218.963L235.005 221.837L234.559 223.868L237.436 227.486L237.932 229.914L240.213 233.481L242.991 235.662L243.289 238.783L243.933 240.765L247.058 234.423L250.679 230.756L254.746 231.945L258.665 232.292L259.161 227.535L261.492 224.017L264.716 221.837L269.725 224.166L273.594 226.693L278.058 227.387L282.572 228.724L284.357 224.562L285.151 224.017L287.929 224.711L294.625 221.292L297.055 222.778L298.989 222.531L299.882 220.895L302.114 220.301L306.677 220.995L310.596 221.193L312.58 220.45L311.588 218.269L307.025 215.544L305.437 211.431L302.858 208.458L298.741 204.891L298.692 202.661L295.319 199.936L291.153 197.26Z" fill="#0C0C0F" stroke="white" stroke-linejoin="round"/>
<path fill-rule="evenodd" clip-rule="evenodd" d="M114.279 185.22L111.799 186.261L110.361 187.103L109.468 184.18L107.732 184.972L106.69 184.824L105.55 186.806L100.887 186.756L99.2503 185.716L98.4567 186.36L97.2167 186.905L96.7207 189.234L98.1095 192.058L99.5975 197.558L97.3159 198.351L96.7703 199.293L97.2167 200.63L96.8199 203.653H95.8775L95.5799 205.635L96.1751 208.955L94.8359 211.977L96.6215 213.86L98.5063 214.306L101.086 217.18L101.234 219.906L100.689 220.748L100.193 226.397L101.334 226.595L107.335 224.068L111.551 222.086L118.743 220.897L122.612 220.797L126.828 222.135L129.606 222.086L129.854 219.361L127.274 213.464L128.862 205.734L131.391 199.986L129.804 190.225L125.687 188.441L122.86 188.738L120.727 190.423L118.049 188.986L117.007 186.707L114.279 185.22Z" fill="#3A27B5" stroke="white" stroke-linejoin="round"/>
<path fill-rule="evenodd" clip-rule="evenodd" d="M236.84 181.652L237.038 177.093L236.542 172.584L234.112 168.174L232.426 168.57L232.227 170.75L234.658 173.476L234.013 174.714L233.765 176.994L228.706 182.296L227.168 186.656L226.374 190.224L225.085 191.76L223.894 196.566L220.72 199.391L219.778 202.859L218.438 205.634L217.893 208.458L213.776 210.787L210.354 207.963L208.072 208.062L204.501 212.076L202.715 212.125L199.888 218.765L198.35 223.621L198.301 225.504L199.838 226.495L201.078 229.567L203.856 230.707L206.237 235.265L205.344 240.666L215.214 240.815L218.091 240.369L221.762 241.31L225.382 240.418L226.126 240.765L233.765 241.063L238.675 242.846L243.486 244.482L243.933 240.765L243.288 238.783L242.99 235.662L240.213 233.481L237.931 229.914L237.435 227.486L234.558 223.869L235.005 221.837L234.41 218.963L234.806 213.661L236.245 212.373L239.27 205.436L240.163 203.602L238.229 198.846L237.336 196.021L234.707 194.882L231.136 190.868L232.376 187.647L235.154 188.291L236.84 187.845L240.213 187.895L236.84 181.652Z" fill="#0C0C0F" stroke="white" stroke-linejoin="round"/>
<path fill-rule="evenodd" clip-rule="evenodd" d="M306.677 220.994L302.114 220.301L299.882 220.895L298.989 222.531L297.055 222.778L294.624 221.292L287.928 224.711L285.151 224.017L284.357 224.562L282.572 228.724L278.058 227.386L273.594 226.693L269.725 224.166L264.716 221.837L261.492 224.017L259.16 227.535L258.664 232.292L258.317 236.454L256.532 240.121L255.341 244.382L254.597 250.477L254.944 254.342L253.952 256.72L253.804 259.247L253.109 261.428L249.092 264.748L246.314 268.266L243.685 274.905L243.834 280.554L242.296 282.734L238.725 286.104L235.154 290.415L232.922 289.176L232.525 287.243L229.252 287.194L227.168 289.82L225.581 289.126L223.349 290.563L222.357 292.298L222.159 295.271L220.621 296.014L221.415 298.145L223.944 297.203L225.68 297.352L227.813 296.509L245.669 296.608L247.108 301.712L248.844 305.825L250.183 308.055L252.464 311.622L256.482 311.077L258.466 310.136L261.789 311.077L262.732 309.393L264.269 305.379L268.039 305.131L268.386 303.942L271.461 303.892L270.916 306.37L278.256 306.32L278.306 310.631L279.496 313.257L278.554 317.42L278.951 321.631L280.885 324.159L280.439 332.334L281.927 331.69L284.556 331.839L288.325 330.848L291.053 331.244L293.136 331.393L293.434 333.524L296.261 333.375L300.08 334.019L302.015 337.091L306.826 338.082L310.546 335.902L311.836 339.519L316.399 340.461L318.532 343.384L320.912 347.15L325.525 347.2L325.228 339.816L323.541 341.055L319.375 338.38L317.788 337.19L318.73 330.303L319.97 322.177L318.68 319.154L320.466 314.793L322.103 313.951L330.237 312.811L331.279 313.109L331.576 311.969L329.89 310.136L329.146 306.37L325.525 302.604L323.492 297.699L324.632 294.825L323.045 290.96L324.236 280.009L324.285 280.108L324.236 278.919L322.748 275.797L323.343 272.031L324.186 271.536L324.434 267.423L326.17 265.54L326.22 260.338L327.658 257.711L327.956 252.211L329.245 249.04L331.527 245.472L333.858 243.639L335.792 241.211L333.362 240.27L333.66 232.292L328.253 227.733L326.815 224.81L323.442 226.247L320.615 225.801L319.028 226.941L316.3 226.098L312.58 220.449L310.596 221.193L306.677 220.994Z" fill="#0C0C0F" stroke="white" stroke-linejoin="round"/>
<path fill-rule="evenodd" clip-rule="evenodd" d="M258.665 232.292L254.746 231.945L250.679 230.756L247.058 234.423L243.933 240.765L243.487 244.481L238.676 242.846L233.765 241.062L226.127 240.765L225.681 243.788L227.367 247.306L231.881 246.761L233.418 248.099L230.789 256.076L233.666 260.139L234.311 265.491L233.517 270.049L231.682 273.27L226.325 272.973L223.101 269.703L222.605 272.725L218.489 273.567L216.405 275.302L218.687 279.811L214.074 283.626L218.985 290.861L221.465 287.888L223.3 286.748L225.581 289.126L227.169 289.82L229.252 287.194L232.525 287.243L232.922 289.176L235.154 290.415L238.725 286.104L242.297 282.734L243.834 280.554L243.685 274.905L246.314 268.266L249.092 264.747L253.109 261.428L253.804 259.247L253.953 256.72L254.945 254.342L254.597 250.477L255.341 244.382L256.532 240.121L258.317 236.454L258.665 232.292Z" fill="#0C0C0F" stroke="white" stroke-linejoin="round"/>
<path fill-rule="evenodd" clip-rule="evenodd" d="M406.868 177.737L404.239 175.854L407.612 174.219L407.662 171.394L406.174 169.264L404.388 170.948L401.809 170.354L399.825 173.376L397.891 176.597L398.436 178.48L398.585 180.561L401.958 180.66L403.396 180.214L404.785 181.404L406.868 177.737Z" fill="#0C0C0F" stroke="white" stroke-linejoin="round"/>
<path fill-rule="evenodd" clip-rule="evenodd" d="M194.631 2.82398L190.762 3.22038L188.381 1.63477L182.33 1.68432L177.073 4.40959L174.196 3.36903L164.821 3.96364L155.199 5.2024L149.743 7.33307L146.172 10.207L140.021 11.3962L134.516 15.2116L136.599 19.6711L136.946 23.8334L138.881 31.1173L140.418 32.5542L139.327 35.23L131.788 36.3696L129.109 38.8967L125.786 39.4913L125.489 44.5454L118.644 47.2212L116.362 50.6897L111.601 52.5231L105.748 53.5636L96.2246 58.6178L96.1254 66.6945V67.19L95.9766 68.5279L117.85 85.1273L137.69 100.091L157.729 115.056L159.167 118.227L162.887 120.209L165.615 121.299L165.714 125.66L172.311 125.015L180.693 121.943L197.805 108.515L217.893 95.4337L215.215 91.1228L210.453 87.9516L207.725 89.1904L205.593 85.375L205.295 82.4515L201.724 77.4469L204.005 74.573L203.361 70.2621L204.055 66.4963L203.559 63.3746L204.452 57.7754L204.055 54.6042L202.021 48.559L199.194 36.3201L195.573 33.5452L195.474 31.9101L190.663 27.7974L190.018 22.6442L193.49 18.7792L194.681 13.0314L193.54 6.39161L194.631 2.82398Z" fill="#0C0C0F" stroke="white" stroke-linejoin="round"/>
<path fill-rule="evenodd" clip-rule="evenodd" d="M311.884 43.6533L305.981 41.6713L300.277 39.8379L292.54 39.937L290.705 43.2073L291.796 46.1308L290.605 50.3426L292.689 55.8922L294.127 80.271L295.218 105.492H319.076H342.09H365.601L364.509 104.105L357.218 97.9606L356.772 93.501L357.863 92.3118L352.109 84.7306L349.927 80.8161L347.497 77.0998L342.289 66.3969L338.122 59.5094L335.097 52.3246L335.642 51.6804L340.652 61.4914L343.529 64.5636L345.661 66.7438L346.901 65.5546L348.241 61.9869L349.034 56.8337L350.423 54.0589L349.679 52.3246L345.463 42.365L342.785 44.0497L338.221 43.6533L333.46 42.0677L332.319 44.2974L330.434 40.928L326.218 40.0361L321.159 40.6307L318.927 42.5632L314.661 44.7434L311.884 43.6533Z" fill="#0C0C0F" stroke="white" stroke-linejoin="round"/>
<path fill-rule="evenodd" clip-rule="evenodd" d="M385.689 150.534L382.217 147.164L380.233 140.871L376.364 132.943L373.537 136.858L369.172 137.998L367.386 140.079L367.039 144.637L364.906 154.696L365.65 157.471L372.743 158.908L374.38 153.755L378.149 156.876L381.621 155.291L383.109 156.728L387.226 156.777L392.583 159.552L394.269 161.93L396.997 164.111L399.676 168.124L401.809 170.354L404.388 170.949L406.173 169.264L403.098 167.183L401.114 164.854L397.692 160.89L394.17 156.975L385.689 150.534Z" fill="#0C0C0F" stroke="white" stroke-linejoin="round"/>
<path fill-rule="evenodd" clip-rule="evenodd" d="M374.38 153.756L372.743 158.909L365.651 157.472L364.956 163.369L362.724 170.108L359.203 173.477L356.822 178.729L356.276 181.554L353.499 183.437L351.862 190.621L351.911 191.464L352.11 196.815L351.217 198.896L348.043 199.045L346.059 202.959L349.779 203.455L352.903 206.775L353.995 209.55L356.822 211.135L360.492 218.568L363.667 219.757L363.716 223.572L365.799 225.852H370.015L377.803 231.649L379.687 231.748L381.126 231.55L382.465 232.343L386.532 232.888L388.268 230.014L393.774 227.14L396.204 229.469H400.371L402.007 227.289L405.876 227.19L411.183 222.334L419.07 222.036L435.686 201.473L430.577 201.523L410.588 193.396L408.207 190.919L405.926 187.648L403.545 183.833L404.785 181.405L403.396 180.216L401.958 180.662L398.585 180.563L398.436 178.482L397.891 176.599L399.825 173.378L401.809 170.355L399.676 168.125L396.998 164.112L394.27 161.932L392.583 159.553L387.227 156.778L383.11 156.729L381.622 155.292L378.15 156.878L374.38 153.756Z" fill="#0C0C0F" stroke="white" stroke-linejoin="round"/>
<path fill-rule="evenodd" clip-rule="evenodd" d="M226.126 240.766L225.382 240.419L221.761 241.311L218.09 240.369L215.214 240.815L215.263 249.09L206.484 248.991L204.401 249.387L203.21 254.491L201.722 259.496L200.383 261.676L200.234 263.955L203.855 271.041L207.873 276.69L214.073 283.627L218.686 279.811L216.404 275.302L218.487 273.568L222.604 272.726L223.1 269.703L226.324 272.973L231.681 273.271L233.516 270.05L234.31 265.491L233.665 260.14L230.788 256.077L233.417 248.099L231.879 246.761L227.366 247.306L225.679 243.788L226.126 240.766Z" fill="#0C0C0F" stroke="white" stroke-linejoin="round"/>
<path fill-rule="evenodd" clip-rule="evenodd" d="M147.014 180.809L144.237 180.264L142.302 181.354L139.624 180.858L129.158 181.156L129.009 185.07L129.803 190.223L131.39 199.985L128.861 205.733L127.273 213.462L129.853 219.359L129.605 222.084L135.011 224.017L140.467 222.035L143.79 219.706L153.313 215.692L151.925 213.264L150.337 208.904L149.841 205.534L151.181 199.341L149.693 196.863L149.097 191.462V186.457L146.568 182.939L147.014 180.809Z" fill="#3A27B5" stroke="white" stroke-linejoin="round"/>
<path fill-rule="evenodd" clip-rule="evenodd" d="M77.5736 171.048L76.6808 171.394L73.4072 170.849L72.9608 171.642L71.6216 171.791L67.3064 170.106L64.4296 170.057L64.2808 172.386L63.636 173.079L64.0824 175.359L63.14 176.25L61.8008 176.3L60.2136 177.44L58.3784 177.291L55.6504 180.66L57.436 181.751L58.2792 183.287L58.924 186.309L60.412 187.647L61.9496 188.539L64.2808 191.215L66.9096 195.278L70.1336 192.255L70.8776 190.372L71.9192 188.886L73.556 188.737L74.9944 187.449H79.8056L81.4424 189.926L82.732 192.8L82.5336 194.782L83.476 196.566L83.4264 199.093L85.0632 198.697L86.3528 198.548L87.94 197.755L90.4696 201.967L90.0232 204.742L91.2136 206.179L92.9 206.228L94.1896 203.454L95.876 203.652H96.8184L97.2152 200.629L96.7688 199.291L97.3144 198.35L99.596 197.557L98.108 192.057L96.7192 189.233L97.2152 186.904L98.4552 186.359L96.62 184.377L96.9672 182.345L96.1736 181.552L94.884 182.197L95.1816 179.967L96.4216 178.232L93.9416 175.359L93.2472 173.476L91.908 171.94L90.7176 171.791L89.2792 172.732L87.2952 173.624L85.6584 175.111L83.0792 174.566L81.4424 172.831L80.4504 172.633L78.8632 173.525H77.8712L77.5736 171.048Z" fill="#3A27B5" stroke="white" stroke-linejoin="round"/>
<path fill-rule="evenodd" clip-rule="evenodd" d="M45.582 166.192L51.038 166.291L52.526 165.35L53.6172 165.3L55.8492 163.715L58.4284 165.152L61.0076 165.3L63.6364 163.764L62.446 161.782L60.462 162.922L58.5772 162.872L56.246 161.188L54.3612 161.287L52.9724 162.922L46.4252 163.12L45.582 166.192Z" fill="#0C0C0F" stroke="white" stroke-linejoin="round"/>
<path fill-rule="evenodd" clip-rule="evenodd" d="M64.4298 170.057L53.3194 169.76L51.6826 170.553L49.6986 170.305L46.4746 171.444L46.8218 172.881L48.657 174.368L48.6074 175.409L49.9466 177.341L52.4762 177.787L55.6506 180.661L58.3786 177.291L60.2138 177.44L61.801 176.3L63.1402 176.251L64.0826 175.359L63.6362 173.08L64.281 172.386L64.4298 170.057Z" fill="#0C0C0F" stroke="white" stroke-linejoin="round"/>
<path fill-rule="evenodd" clip-rule="evenodd" d="M215.215 240.815L205.344 240.666L203.311 248.346L204.402 249.387L206.485 248.99L215.264 249.09L215.215 240.815Z" fill="#0C0C0F" stroke="white" stroke-linejoin="round"/>
<path fill-rule="evenodd" clip-rule="evenodd" d="M400.372 229.468H396.206L393.775 227.139L388.27 230.013L386.534 232.886L382.467 232.341L381.127 231.549L379.689 231.747L377.804 231.648L370.017 225.85H365.801L363.718 223.571L363.668 219.756L360.494 218.566L356.476 223.076L352.806 227.188L355.732 231.945L356.476 235.414L359.204 243.243L357.022 248.247L354.095 252.806L352.359 255.581V255.927L353.798 258.504L353.401 263.608L375.275 277.581L375.622 281.545L384.203 288.383L386.683 286.104L387.923 281.545L389.907 278.82L390.849 273.964L393.131 273.468L394.668 270.594L398.934 267.869L395.363 262.22L395.164 237.247L400.372 229.468Z" fill="#0C0C0F" stroke="white" stroke-linejoin="round"/>
<path fill-rule="evenodd" clip-rule="evenodd" d="M95.8763 203.652L94.1899 203.454L92.9003 206.229L91.2139 206.179L90.0235 204.742L90.4699 201.968L87.9403 197.756L86.3531 198.549L85.0635 198.697L82.2363 201.918L79.5083 205.634L79.1611 207.616L77.7227 209.797L81.7403 214.207L86.8987 217.972L92.3547 223.175L98.6043 226.446L100.191 226.396L100.687 220.747L101.233 219.905L101.084 217.18L98.5051 214.306L96.6203 213.86L94.8347 211.977L96.1739 208.954L95.5787 205.634L95.8763 203.652Z" fill="#0C0C0F" stroke="white" stroke-linejoin="round"/>
<path fill-rule="evenodd" clip-rule="evenodd" d="M292.54 39.9373L291.003 37.7075L285.199 36.9147L283.265 35.7255H281.083L278.9 32.6534L271.014 31.2659L267.095 32.1579L263.177 35.3786L261.54 38.6985L263.227 43.9509L260.598 47.0725L257.87 48.8564L251.471 45.4374L243.188 42.613L237.931 41.2751L234.905 35.1804L227.118 32.1579L222.257 31.0182L219.876 31.6128L213.031 29.2344L212.883 34.4867L210.105 36.4687L208.419 38.649L204.5 41.2751L205.244 44.0995L204.798 46.9734L202.02 48.559L204.054 54.6042L204.451 57.7754L203.558 63.3746L204.054 66.4963L203.359 70.2621L204.004 74.573L201.723 77.447L205.294 82.4516L205.591 85.375L207.724 89.1904L210.452 87.9517L215.214 91.1229L217.892 95.4338L227.316 98.4068L230.739 102.123L234.855 99.596L240.758 95.8302L264.764 108.961L288.919 122.092L288.87 119.218H295.715L295.219 105.493L294.127 80.2713L292.689 55.8925L290.606 50.3429L291.796 46.1311L290.705 43.2076L292.54 39.9373Z" fill="#0C0C0F" stroke="white" stroke-linejoin="round"/>
<path fill-rule="evenodd" clip-rule="evenodd" d="M310.15 465.724L311.39 463.544L314.713 462.454L315.903 460.224L317.937 456.904L316.052 454.823L313.671 452.742L310.844 454.13L307.471 456.805L304.049 461.116L308.017 466.369L310.15 465.724Z" fill="#0C0C0F" stroke="white" stroke-linejoin="round"/>
<path fill-rule="evenodd" clip-rule="evenodd" d="M134.516 15.2123L132.036 15.1627L126.133 13.6267L120.677 14.0726L117.304 11.1492L113.088 11.0996L111.204 15.3609L107.236 22.5458L102.92 25.3701L97.0676 28.5414L93.2484 33.1496L92.3556 36.7667L89.9748 42.6137L91.2148 51.1364L86.2052 56.8347L83.2292 58.668L78.4676 63.3258L73.0116 64.1186L69.986 66.7448L69.8868 66.8439L65.9684 73.8305L61.9508 76.3576L59.7188 80.5693L59.4708 84.2361L57.7844 88.2497L55.8004 89.3398L52.378 93.7002L50.1956 98.5561L50.5428 100.835L48.5092 104.453L46.178 106.286L45.7812 109.457L45.8804 109.507L59.2724 108.962L60.066 106.484L62.546 103.412L64.7284 93.948L73.1108 86.5154L76.0868 77.8936L77.922 77.3486L80.0052 71.9971L84.9652 71.3034L87.0484 72.1953H89.7268L91.6612 70.6097L95.282 70.4115L95.2324 66.6952H96.1252L96.2244 58.6185L105.748 53.5643L111.6 52.5238L116.362 50.6904L118.644 47.2219L125.488 44.5462L125.786 39.492L129.109 38.8974L131.788 36.3703L139.327 35.2307L140.418 32.555L138.88 31.118L136.946 23.8341L136.599 19.6718L134.516 15.2123Z" fill="#0C0C0F" stroke="white" stroke-linejoin="round"/>
<path fill-rule="evenodd" clip-rule="evenodd" d="M447.839 349.231L446.599 344.722L445.111 341.798L443.176 338.875L441.043 341.947L440.696 346.06L437.175 350.817L434.645 349.974L435.29 352.947L433.306 356.366L428.147 360.578L424.527 364.493L421.848 364.592L419.567 365.83L416.144 367.218L413.168 367.515L412.077 371.826L409.746 375.691L409.845 381.984L410.688 386.295L411.879 389.565L411.035 393.926L407.861 399.128L407.712 401.408L404.885 402.597L403.496 407.552L403.695 412.457L405.381 417.908L405.331 424.003L406.621 427.62L411.135 430.097L414.359 431.832L419.765 428.958L424.675 427.323L428.048 419.345L431.074 409.831L435.687 396.849L439.307 387.385L442.234 379.407L443.027 373.61L444.763 372.024L445.507 369.101L444.664 364.047L445.954 362.015L447.69 366.029L448.88 363.997L449.723 360.727L448.335 357.506L447.839 349.231Z" fill="#0C0C0F" stroke="white" stroke-linejoin="round"/>
<path fill-rule="evenodd" clip-rule="evenodd" d="M172.31 125.015L165.713 125.659L165.614 121.299L162.886 120.209L159.166 118.227L157.728 115.055L137.689 100.091L117.849 85.127L108.822 85.2261L111.352 114.808L114.03 144.389L115.022 145.281L113.683 150.038L89.6271 150.137L88.6847 151.673L86.4031 151.227L82.9807 152.565L78.8143 150.682L76.9295 150.831L75.8383 154.894L73.8047 156.133L74.0031 160.394L75.1439 164.309L77.3759 166.241L77.8719 168.867L77.5743 171.047L77.8719 173.525H78.8639L80.4511 172.633L81.4431 172.831L83.0799 174.565L85.6591 175.111L87.2959 173.624L89.2799 172.732L90.7183 171.791L91.9087 171.939L93.2479 173.475L93.9423 175.358L96.4223 178.232L95.1823 179.967L94.8847 182.196L96.1743 181.552L96.9679 182.345L96.6207 184.376L98.4559 186.359L99.2495 185.714L100.886 186.755L105.549 186.804L106.689 184.822L107.731 184.971L109.467 184.178L110.36 187.102L111.798 186.259L114.278 185.219L113.881 181.255L115.568 178.331L115.419 176.002L120.23 170.354L121.123 165.646L122.809 163.962L125.686 164.903L128.216 163.516L129.059 161.732L133.721 158.66L134.862 156.529L140.467 153.655L143.79 152.714L145.278 154.002H149.147L152.966 153.705L155.198 151.277L163.382 150.682L168.689 149.592L169.185 145.38L172.459 140.822L172.31 125.015Z" fill="#3A27B5" stroke="white" stroke-linejoin="round"/>
<path fill-rule="evenodd" clip-rule="evenodd" d="M390.947 330.105L390.104 327.033L385.144 331.047L378.498 333.673L374.877 333.574L372.645 335.655L368.479 335.804L366.842 336.696L359.699 334.763L357.368 335.011L355.731 341.502L356.426 349.331H356.773L358.856 351.511L361.138 356.466L361.287 365.286L358.608 366.773L356.575 371.529L352.855 367.268L352.607 362.462L354.045 359.241L353.797 356.516L351.466 354.781L349.829 355.376L346.456 352.106L328.055 357.754L328.451 362.66L328.749 365.187L333.709 365.038L336.437 366.525L337.677 368.21L340.504 368.705L343.53 370.885L343.133 379.557L341.744 384.314L341.248 389.467L342.091 391.498L341.248 395.512L340.306 396.156L338.52 401.062L331.874 408.841L334.205 418.503L335.445 423.409L333.957 431.04L334.304 433.517L334.949 436.589L335.247 439.612L339.711 439.661L340.455 436.044L339.016 435.598L338.719 432.724L341.447 430.148L348.787 426.431L353.797 424.152L356.426 421.675L357.467 418.85L356.128 417.661L357.319 414.49L357.864 407.751L356.773 408.098L356.823 406.066L355.88 402.053L353.301 396.85L354.095 391.944L356.624 390.359L361.039 385.503L363.37 384.264L370.512 376.881L377.456 373.561L383.061 370.935L387.079 366.723L389.658 361.966L391.691 357.061L390.799 353.691L390.997 342.988L390.501 336.943L390.947 330.105Z" fill="#0C0C0F" stroke="white" stroke-linejoin="round"/>
<path fill-rule="evenodd" clip-rule="evenodd" d="M117.849 85.1267L95.9752 68.5273L95.7272 78.8834L76.4328 78.5365L76.2344 96.0774L70.6792 96.7215L69.1416 100.24L70.084 110.15L46.8216 110.1L45.4824 112.379L48.508 115.353L49.996 118.573L49.3016 121.992L49.9464 125.411L50.4424 132.2L49.5496 138.641L47.8136 142.011L48.26 145.727L50.3432 143.497L53.3192 144.092L56.2456 142.605L59.6184 142.556L62.4456 144.538L66.364 146.371L69.9352 151.425L73.804 156.133L75.8376 154.894L76.9288 150.831L78.8136 150.682L82.98 152.565L86.4024 151.227L88.684 151.673L89.6264 150.137L113.682 150.038L115.022 145.281L114.03 144.389L111.351 114.807L108.822 85.2258L117.849 85.1267Z" fill="#0C0C0F" stroke="white" stroke-linejoin="round"/>
<path fill-rule="evenodd" clip-rule="evenodd" d="M354.442 352.65L354.59 350.073L353.251 348.042L353.45 345.069L351.813 340.014L353.648 336.199L353.549 327.924L351.515 323.514L351.714 322.771L350.573 320.888L344.67 319.6L347.448 322.672L348.837 328.469L347.746 330.352L346.406 335.902L347.398 341.6L345.414 343.978L343.381 350.321L346.456 352.105L349.829 355.375L351.466 354.78L353.797 356.515L354.045 359.24L352.606 362.461L352.854 367.267L356.574 371.528L358.608 366.772L361.286 365.285L361.138 356.465L358.856 351.51L356.773 349.33H356.426L356.475 350.271L357.616 350.519L358.707 354.186L358.509 355.028L356.475 352.402L355.384 354.087L354.442 352.65Z" fill="#0C0C0F" stroke="white" stroke-linejoin="round"/>
<path fill-rule="evenodd" clip-rule="evenodd" d="M285.695 376.435L274.585 379.259L260.151 378.268L256.084 374.998L231.879 375.295L230.937 375.791L227.415 372.669L223.546 372.471L219.975 373.61L217.049 374.948L217.346 380.201L222.058 386.89L223.298 391.201L226.274 399.426L229.201 405.075L231.482 407.899L232.127 411.665L232.078 419.841L233.764 430.395L235.054 435.4L236.145 442.04L238.278 447.044L242.394 452.247L245.37 448.877L247.602 450.711L248.446 453.684L251.025 454.179L254.646 455.468L257.82 454.972L263.177 451.454L264.268 426.134L264.962 406.115L270.815 405.868L271.758 381.439L276.222 381.241L285.497 378.813L287.679 381.638L291.598 378.962H293.383L296.806 377.426V376.831L294.474 375.295L290.606 374.899L285.695 376.435Z" fill="#0C0C0F" stroke="white" stroke-linejoin="round"/>
<path fill-rule="evenodd" clip-rule="evenodd" d="M227.316 98.4066L217.892 95.4336L197.804 108.515L180.692 121.943L172.31 125.015L172.458 140.822L169.185 145.38L168.689 149.592L163.382 150.682L155.198 151.277L152.966 153.705L149.146 154.002L148.65 157.322L149.444 160.444L152.866 164.903L153.065 168.223L160.009 169.759L159.86 174.467L161.894 172.485L164.026 172.435L168.639 176.399L169.036 170.255L170.772 167.529L171.566 163.565L173.153 162.079L179.601 161.286L185.652 163.813L187.934 166.439L190.959 166.538L193.836 164.854L201.127 168.372L204.202 168.223L207.724 165.3L211.246 165.498L212.982 164.556L216.206 164.953L220.868 166.935L225.53 163.12L226.969 163.417L231.135 170.899L232.226 170.75L232.425 168.57L234.111 168.174L234.657 164.953L230.788 164.804L230.738 160.394L228.209 157.818L230.639 148.799L238.178 142.358L238.278 133.439L240.262 119.515L241.502 116.542L238.972 114.213L238.823 112.033L236.542 110.249L234.855 99.5958L230.738 102.123L227.316 98.4066Z" fill="#0C0C0F" stroke="white" stroke-linejoin="round"/>
<path fill-rule="evenodd" clip-rule="evenodd" d="M232.227 170.751L231.136 170.9L226.969 163.418L225.531 163.12L220.868 166.936L216.206 164.954L212.982 164.557L211.246 165.499L207.724 165.301L204.203 168.224L201.128 168.373L193.836 164.855L190.96 166.539L187.934 166.44L185.652 163.814L179.601 161.287L173.153 162.08L171.566 163.566L170.772 167.53L169.036 170.256L168.64 176.4L168.392 178.679L169.78 182.742L168.59 185.517L169.235 187.351L166.308 191.562L164.473 193.693L163.332 198.004L163.481 202.364L163.184 213.414H168.491L173.054 213.365L177.32 217.874L179.353 222.829L182.577 227.09L187.438 227.239L189.769 225.703L192.051 226.099L198.35 223.622L199.888 218.766L202.715 212.126L204.5 212.076L208.072 208.063L210.353 207.964L213.776 210.788L217.892 208.459L218.438 205.635L219.777 202.86L220.72 199.391L223.894 196.567L225.084 191.761L226.374 190.225L227.168 186.657L228.705 182.296L233.764 176.995L234.012 174.715L234.657 173.477L232.227 170.751Z" fill="#0C0C0F" stroke="white" stroke-linejoin="round"/>
<path fill-rule="evenodd" clip-rule="evenodd" d="M331.279 264.104L327.609 266.234L326.17 265.54L324.434 267.423L324.186 271.536L323.343 272.032L322.748 275.797L326.418 276.342L328.303 272.428L331.527 272.874L333.263 271.982L333.66 267.968L331.279 264.104Z" fill="#0C0C0F" stroke="white" stroke-linejoin="round"/>
<path fill-rule="evenodd" clip-rule="evenodd" d="M96.124 66.6953H95.2312L95.2808 70.4116L91.66 70.6098L89.7256 72.1954H87.0472L84.964 71.3035L80.004 71.9972L77.9208 77.3487L76.0856 77.8937L73.1096 86.5155L64.7272 93.9481L62.5448 103.412L60.0648 106.484L59.2712 108.962L45.8792 109.507L45.78 109.457L45.4824 112.381L46.8216 110.102L70.084 110.151L69.1416 100.241L70.6792 96.7229L76.2344 96.0787L76.4328 78.5379L95.7272 78.8847L95.9752 68.5287L96.124 67.1908V66.6953Z" fill="#0C0C0F" stroke="white" stroke-linejoin="round"/>
<path fill-rule="evenodd" clip-rule="evenodd" d="M367.04 144.637L367.387 140.078L369.172 137.997L373.537 136.858L376.364 132.943L372.942 130.416L370.561 128.731L367.932 120.556L366.692 113.47L367.932 112.231L365.601 105.492H342.091H319.076H295.219L295.715 119.218H288.87L288.92 122.092L290.11 149.295L284.902 148.849L282.323 153.903L280.835 158.115L282.124 159.7L280.24 161.831L280.984 164.655L279.496 167.529L278.9 170.007L281.033 169.61L282.323 172.286L282.472 176.25L284.753 178.282L284.704 179.967L285.448 182.89L289.019 187.151L289.068 189.976L288.126 192.8L288.572 194.931L290.656 196.913L291.152 197.26L293.036 196.467L295.07 195.179L296.508 189.084L298.096 185.913L302.46 184.971L303.502 186.854L306.726 190.818L308.363 191.413L310.545 190.273L314.86 190.471L315.753 191.908H321.755L321.904 190.471L325.028 189.183L325.574 187.201L327.856 185.764L333.014 189.778L336.089 189.084L338.966 184.129L342.19 180.363L341.545 176.25L340.057 174.268L343.678 173.872L344.025 172.385L346.852 172.831L346.257 177.885L347.1 182.84L350.324 185.566L351.068 187.895V191.314L351.912 191.462L351.862 190.62L353.499 183.435L356.276 181.552L356.822 178.728L359.203 173.475L362.724 170.106L364.956 163.367L365.651 157.471L364.907 154.696L367.04 144.637Z" fill="#0C0C0F" stroke="white" stroke-linejoin="round"/>
<path fill-rule="evenodd" clip-rule="evenodd" d="M351.069 187.896L350.325 185.567L347.101 182.842L346.258 177.887L346.853 172.833L344.026 172.387L343.679 173.873L340.058 174.27L341.546 176.252L342.191 180.364L338.967 184.13L336.09 189.085L333.015 189.779L327.856 185.765L325.575 187.202L325.029 189.184L321.904 190.473L321.756 191.91H315.754L314.861 190.473L310.546 190.274L308.364 191.414L306.727 190.819L303.503 186.855L302.461 184.973L298.096 185.914L296.509 189.085L295.071 195.18L293.037 196.468L291.152 197.261L295.319 199.937L298.692 202.662L298.741 204.892L302.858 208.459L305.437 211.432L307.024 215.545L311.588 218.27L312.58 220.451L316.3 226.099L319.028 226.942L320.615 225.802L323.442 226.248L326.815 224.811L328.253 227.735L333.66 232.293L336.14 230.41L340.008 231.946L344.869 230.311L349.135 230.361L352.805 227.19L356.476 223.077L360.493 218.568L356.823 211.135L353.996 209.55L352.904 206.775L349.78 203.455L346.06 202.959L348.044 199.045L351.218 198.896L352.111 196.815L351.912 191.464L351.069 191.315V187.896Z" fill="#0C0C0F" stroke="white" stroke-linejoin="round"/>
<path fill-rule="evenodd" clip-rule="evenodd" d="M73.8044 156.133L69.9356 151.426L66.3644 146.372L62.446 144.539L59.6188 142.557L56.246 142.606L53.3196 144.093L50.3436 143.498L48.2604 145.728L46.7724 149.246L43.7468 154.052L41.0684 155.341L44.0444 157.769L46.4252 163.12L52.9724 162.922L54.3612 161.287L56.246 161.188L58.5772 162.872L60.462 162.922L62.446 161.782L63.6364 163.764L61.0076 165.3L58.4284 165.152L55.8492 163.715L53.6172 165.3L52.526 165.35L51.038 166.291L45.582 166.192L46.4748 171.445L49.6988 170.305L51.6828 170.553L53.3196 169.76L64.43 170.057L67.3068 170.107L71.622 171.791L72.9612 171.643L73.4076 170.85L76.6812 171.395L77.574 171.048L77.8716 168.868L77.3756 166.242L75.1436 164.309L74.0028 160.395L73.8044 156.133Z" fill="#3A27B5" stroke="white" stroke-linejoin="round"/>
<path fill-rule="evenodd" clip-rule="evenodd" d="M85.0638 198.697L83.427 199.094L83.4766 196.567L82.5342 194.783L82.7326 192.801L81.443 189.927L79.8062 187.449H74.995L73.5566 188.738L71.9198 188.886L70.8782 190.373L70.1342 192.256L66.9102 195.278L67.6046 200.382L68.6462 202.859L71.771 206.526L76.0862 209.301L77.723 209.796L79.1614 207.616L79.5086 205.634L82.2366 201.918L85.0638 198.697Z" fill="#3A27B5" stroke="white" stroke-linejoin="round"/>
<path fill-rule="evenodd" clip-rule="evenodd" d="M334.303 433.517L331.427 432.229L329.691 432.724L328.996 434.706L327.211 437.283L327.111 439.661L330.385 443.377L333.857 442.634L335.246 439.612L334.948 436.589L334.303 433.517Z" fill="#0C0C0F" stroke="white" stroke-linejoin="round"/>
<path fill-rule="evenodd" clip-rule="evenodd" d="M288.919 122.092L264.764 108.961L240.758 95.8301L234.855 99.5959L236.542 110.249L238.823 112.033L238.972 114.213L241.502 116.542L240.262 119.515L238.278 133.439L238.179 142.358L230.639 148.799L228.209 157.818L230.739 160.394L230.788 164.804L234.657 164.953L234.111 168.174L236.542 172.584L237.038 177.093L236.839 181.651L240.212 187.895L236.839 187.845L235.153 188.291L232.375 187.647L231.135 190.868L234.707 194.881L237.335 196.021L238.228 198.845L240.163 203.602L239.27 205.436L244.23 204.94L245.321 203.156L246.363 203.305L247.851 204.841L255.439 202.215L257.969 199.539L261.094 197.161L260.499 194.733L262.185 194.138L268.038 194.535L273.643 191.363L277.908 183.881L280.884 181.106L284.703 179.967L284.753 178.282L282.471 176.25L282.323 172.286L281.033 169.611L278.9 170.007L279.495 167.53L280.983 164.656L280.239 161.831L282.124 159.701L280.835 158.115L282.323 153.903L284.902 148.849L290.11 149.295L288.919 122.092Z" fill="#0C0C0F" stroke="white" stroke-linejoin="round"/>
<path fill-rule="evenodd" clip-rule="evenodd" d="M152.322 180.957L147.015 180.809L146.568 182.939L149.098 186.457V191.462L149.693 196.863L151.181 199.34L149.842 205.534L150.338 208.904L151.925 213.264L153.314 215.692L158.175 214.206L156.687 209.498L156.935 193.741L155.695 192.354L155.496 188.984L153.364 186.556L151.528 184.525L152.322 180.957Z" fill="#0C0C0F" stroke="white" stroke-linejoin="round"/>
<path fill-rule="evenodd" clip-rule="evenodd" d="M213.032 29.2348L210.8 28.1447L209.213 24.8743L206.237 24.7752L205.046 21.0094L208.667 17.5409L209.213 11.5453L207.179 9.81099L207.08 6.59021L209.808 3.12168L209.362 1.78382L204.65 4.36044L204.699 0.842358L200.682 0L194.63 2.82438L193.539 6.39201L194.68 13.0318L193.49 18.7796L190.018 22.6446L190.662 27.7978L195.474 31.9105L195.573 33.5457L199.194 36.3205L202.021 48.5594L204.798 46.9738L205.245 44.0999L204.501 41.2755L208.419 38.6493L210.106 36.4691L212.883 34.4871L213.032 29.2348Z" fill="#0C0C0F" stroke="white" stroke-linejoin="round"/>
<path fill-rule="evenodd" clip-rule="evenodd" d="M333.411 263.262L331.278 264.104L333.659 267.969L333.262 271.983L331.526 272.875L331.824 275.55L333.113 277.136L333.163 279.366L331.675 280.803L329.245 284.37L327.013 286.848L326.417 286.947L326.07 289.87L327.211 290.861L326.963 293.785L328.104 296.51L326.665 299.136L331.477 303.794L331.873 308.006L334.8 315.042L335.097 315.24L337.478 316.38L341.297 317.569L344.67 319.601L350.573 320.889L351.713 322.772L352.11 321.434L355.185 325.101L355.483 332.286L357.417 334.912L357.368 335.011L359.699 334.763L366.841 336.696L368.478 335.804L372.645 335.655L374.877 333.574L378.497 333.673L385.144 331.047L390.104 327.033L387.921 325.547L385.59 318.808L383.606 314.497L384.102 311.227L383.805 309.145L385.541 304.983L385.392 303.199L381.573 300.722L381.275 296.857L384.201 288.384L375.621 281.546L375.273 277.582L353.4 263.609L350.424 266.631L348.39 269.753L350.771 272.082L347.299 273.766L346.555 272.974L343.033 273.42L340.305 274.956L338.669 272.28L339.809 267.474L340.057 263.361L333.411 263.262Z" fill="#0C0C0F" stroke="white" stroke-linejoin="round"/>
<path fill-rule="evenodd" clip-rule="evenodd" d="M352.805 227.189L349.135 230.361L344.869 230.311L340.008 231.946L336.14 230.41L333.66 232.293L333.362 240.271L335.792 241.212L333.858 243.64L331.527 245.474L329.245 249.041L327.956 252.212L327.658 257.713L326.22 260.339L326.17 265.542L327.608 266.235L331.279 264.105L333.412 263.262L340.058 263.361L339.711 260.735L342.538 256.722L346.357 255.731L348.936 254.095L352.061 255.433L352.359 255.929V255.582L354.095 252.807L357.021 248.248L359.204 243.244L356.476 235.415L355.732 231.946L352.805 227.189Z" fill="#0C0C0F" stroke="white" stroke-linejoin="round"/>
<path fill-rule="evenodd" clip-rule="evenodd" d="M259.06 495.008L261.689 494.86L265.409 492.233L270.369 491.143L276.47 488.418L278.801 488.765L282.372 487.923L288.473 489.26L291.399 487.972L294.822 488.963L295.715 487.08L298.691 486.684L304.94 484.058L309.553 480.936L313.967 476.823L321.11 469.787L324.83 464.882L326.764 461.364L329.492 457.895L330.732 456.904L334.998 453.435L336.734 450.363L337.875 444.665L339.71 439.66L335.246 439.611L333.857 442.633L330.385 443.377L327.111 439.66L327.211 437.282L328.996 434.705L329.691 432.723L331.427 432.228L334.303 433.516L333.956 431.039L335.444 423.408L334.204 418.502L331.873 408.84L328.748 408.196L326.715 408.989L323.887 407.849L321.457 407.75L312.876 412.804L307.321 417.908L305.139 422.516L303.204 425.093L299.98 425.638L298.79 428.908L298.095 431.039L294.227 432.624L289.465 432.327L286.737 430.395L284.307 429.552L281.331 431.138L279.743 434.408L276.867 436.489L273.791 439.561L269.575 440.255L268.335 437.827L269.079 433.665L265.855 427.124L264.268 426.133L263.177 451.453L257.82 454.972L254.646 455.467L251.025 454.179L248.446 453.683L247.603 450.71L245.371 448.877L242.395 452.246L246.214 461.116V461.165L248.892 466.963L252.315 473.305L252.215 478.558L250.281 479.796L251.868 484.405L251.62 488.418L252.265 490.301L252.612 489.36L254.894 492.432L256.779 492.531L259.06 495.008ZM310.148 465.724L308.015 466.368L304.047 461.116L307.47 456.805L310.843 454.129L313.67 452.742L316.051 454.823L317.935 456.904L315.902 460.224L314.711 462.454L311.388 463.544L310.148 465.724Z" fill="#0C0C0F" stroke="white" stroke-linejoin="round"/>
<path fill-rule="evenodd" clip-rule="evenodd" d="M332.964 315.141L330.93 314.596L331.277 313.11L330.236 312.812L322.101 313.952L320.465 314.795L318.679 319.155L319.969 322.178L318.729 330.304L317.786 337.191L319.373 338.381L323.54 341.056L325.226 339.817L325.524 347.201L320.911 347.151L318.53 343.385L316.397 340.462L311.834 339.52L310.545 335.903L306.825 338.083L302.013 337.092L300.079 334.02L296.26 333.376L293.433 333.525L293.135 331.394L291.052 331.245L291.647 333.376L290.903 336.696L291.895 339.917L290.903 342.493L291.399 344.822L278.85 344.773L278.057 366.575L281.925 372.174L285.695 376.435L290.605 374.899L294.474 375.296L296.805 376.832V377.426L297.897 377.922L304.543 378.665L306.428 379.458L308.461 379.309L311.933 374.85L317.34 369.201L319.522 368.705L320.365 366.327L323.837 363.602L328.45 362.66L328.053 357.755L346.455 352.106L343.38 350.322L345.413 343.98L347.397 341.601L346.405 335.903L347.745 330.353L348.836 328.47L347.447 322.673L344.669 319.601L341.297 317.569L337.477 316.38L335.097 315.24L334.799 315.042L335.245 316.182L334.253 316.578L332.964 315.141Z" fill="#0C0C0F" stroke="white" stroke-linejoin="round"/>
<path fill-rule="evenodd" clip-rule="evenodd" d="M331.874 408.841L338.521 401.062L340.306 396.156L341.249 395.512L342.092 391.498L341.249 389.467L341.745 384.314L343.134 379.557L343.53 370.886L340.505 368.705L337.678 368.21L336.438 366.525L333.71 365.039L328.75 365.187L328.452 362.66L323.839 363.602L320.367 366.327L319.524 368.705L317.342 369.201L311.935 374.85L308.463 379.309L306.43 379.458L304.545 378.665L297.898 377.922L299.982 383.422L301.122 384.611L302.858 388.575L309.306 396.107L311.836 396.85L311.737 399.278L313.274 403.638L317.838 404.679L321.458 407.751L323.889 407.85L326.716 408.99L328.75 408.197L331.874 408.841Z" fill="#0C0C0F" stroke="white" stroke-linejoin="round"/>
<path fill-rule="evenodd" clip-rule="evenodd" d="M412.97 184.725L410.143 181.851L408.903 179.026L406.87 177.738L404.786 181.405L403.546 183.833L405.927 187.648L408.209 190.918L410.59 193.396L430.578 201.522L435.687 201.473L419.071 222.036L411.185 222.333L405.878 227.189L402.009 227.288L400.372 229.469L395.164 237.248L395.362 262.222L398.934 267.87L400.273 266.235L401.711 262.618L408.358 254.343L414.012 249.091L422.99 242.302L428.991 236.753L435.985 227.388L440.994 219.707L445.954 209.698L449.426 200.928L452.105 193.247L453.543 185.864L454.734 183.387L454.535 179.77L454.932 175.806L454.684 173.873L452.402 173.923L449.674 176.251L446.5 176.945L443.772 177.986L441.838 178.085L438.415 178.333L436.332 179.621L433.356 180.067L428.148 182.198L421.601 182.99L415.996 184.725H412.97Z" fill="#0C0C0F" stroke="white" stroke-linejoin="round"/>
</g>
<defs>
<clipPath id="clip0_951_104">
<rect width="496" height="496" fill="white"/>
</clipPath>
</defs>
</svg>
