<svg width="60" height="60" viewBox="0 0 60 60" fill="none" xmlns="http://www.w3.org/2000/svg">
<path d="M55.5937 35.595C55.4372 35.158 55.2532 34.7314 55.043 34.3176L45.2953 12.1411C45.2031 11.9275 45.0711 11.7334 44.9063 11.5692C44.2098 10.8726 43.3829 10.32 42.4729 9.94294C41.5628 9.56593 40.5874 9.37188 39.6023 9.37188C38.6173 9.37188 37.6419 9.56593 36.7318 9.94294C35.8218 10.32 34.9949 10.8726 34.2984 11.5692C33.948 11.92 33.7509 12.3952 33.75 12.8911V18.7504H26.25V12.8911C26.2502 12.6448 26.2019 12.4008 26.1078 12.1732C26.0137 11.9456 25.8756 11.7388 25.7016 11.5645C25.0051 10.8679 24.1782 10.3153 23.2682 9.93825C22.3581 9.56124 21.3827 9.36719 20.3977 9.36719C19.4126 9.36719 18.4372 9.56124 17.5271 9.93825C16.6171 10.3153 15.7902 10.8679 15.0938 11.5645C14.9289 11.7287 14.7969 11.9228 14.7047 12.1364L4.95703 34.3129C4.74677 34.7267 4.56281 35.1533 4.40625 35.5903C3.8543 37.1347 3.64669 38.781 3.79796 40.4141C3.94923 42.0472 4.45573 43.6274 5.28198 45.0441C6.10823 46.4608 7.23423 47.6798 8.58113 48.6155C9.92802 49.5513 11.4632 50.1812 13.0792 50.4612C14.6952 50.7413 16.3528 50.6646 17.936 50.2366C19.5192 49.8085 20.9897 49.0395 22.2445 47.9834C23.4992 46.9273 24.5079 45.6096 25.1998 44.1227C25.8917 42.6357 26.2501 41.0155 26.25 39.3754V22.5004H33.75V39.3754C33.7492 41.0157 34.107 42.6363 34.7985 44.1236C35.4899 45.611 36.4983 46.9292 37.7529 47.9858C39.0074 49.0425 40.4779 49.812 42.0612 50.2405C43.6444 50.669 45.3023 50.746 46.9185 50.4663C48.5347 50.1866 50.0702 49.5569 51.4174 48.6212C52.7646 47.6855 53.8909 46.4666 54.7174 45.0498C55.5439 43.633 56.0506 42.0526 56.202 40.4194C56.3534 38.7861 56.1458 37.1395 55.5937 35.595ZM17.9789 14.0043C18.604 13.478 19.384 13.1702 20.2001 13.1279C21.0162 13.0856 21.8238 13.3111 22.5 13.77V30.9989C21.0361 29.6844 19.2524 28.7777 17.3278 28.3696C15.4031 27.9616 13.405 28.0665 11.5336 28.6739L17.9789 14.0043ZM15 46.8754C13.5166 46.8754 12.0666 46.4356 10.8332 45.6115C9.59986 44.7873 8.63856 43.616 8.07091 42.2456C7.50325 40.8751 7.35472 39.3671 7.64411 37.9123C7.9335 36.4574 8.64781 35.121 9.6967 34.0721C10.7456 33.0232 12.082 32.3089 13.5368 32.0195C14.9917 31.7302 16.4997 31.8787 17.8701 32.4463C19.2406 33.014 20.4119 33.9753 21.236 35.2087C22.0601 36.442 22.5 37.8921 22.5 39.3754C22.5 41.3646 21.7098 43.2722 20.3033 44.6787C18.8968 46.0853 16.9891 46.8754 15 46.8754ZM37.5 13.7676C38.1762 13.3087 38.9838 13.0833 39.7999 13.1256C40.616 13.1679 41.396 13.4756 42.0211 14.002L48.4664 28.6692C46.5948 28.0621 44.5966 27.9576 42.6719 28.366C40.7472 28.7745 38.9637 29.6816 37.5 30.9965V13.7676ZM45 46.8754C43.5166 46.8754 42.0666 46.4356 40.8332 45.6115C39.5999 44.7873 38.6386 43.616 38.0709 42.2456C37.5032 40.8751 37.3547 39.3671 37.6441 37.9123C37.9335 36.4574 38.6478 35.121 39.6967 34.0721C40.7456 33.0232 42.082 32.3089 43.5368 32.0195C44.9917 31.7302 46.4997 31.8787 47.8701 32.4463C49.2406 33.014 50.4119 33.9753 51.236 35.2087C52.0601 36.442 52.5 37.8921 52.5 39.3754C52.5 41.3646 51.7098 43.2722 50.3033 44.6787C48.8968 46.0853 46.9891 46.8754 45 46.8754Z" fill="#3A27B5"/>
</svg>
