<svg width="60" height="60" viewBox="0 0 60 60" fill="none" xmlns="http://www.w3.org/2000/svg">
<path d="M52.0001 19.4911C54.6019 24.9328 55.0959 31.1454 53.3865 36.9299C51.6772 42.7144 47.8858 47.6607 42.744 50.8141C37.6022 53.9676 31.4746 55.1046 25.5438 54.0058C19.6129 52.9071 14.2993 49.6503 10.6285 44.8642C6.95764 40.0781 5.18977 34.1019 5.66608 28.089C6.14239 22.076 8.82911 16.4527 13.2077 12.3042C17.5863 8.15571 23.3464 5.77619 29.3763 5.62487C35.4061 5.47356 41.2783 7.56118 45.8595 11.4848L51.1727 6.16919C51.5246 5.81737 52.0017 5.61971 52.4993 5.61971C52.9969 5.61971 53.474 5.81737 53.8259 6.16919C54.1777 6.52102 54.3753 6.9982 54.3753 7.49576C54.3753 7.99331 54.1777 8.47049 53.8259 8.82232L31.3259 31.3223C30.974 31.6741 30.4969 31.8718 29.9993 31.8718C29.5017 31.8718 29.0246 31.6741 28.6727 31.3223C28.3209 30.9705 28.1233 30.4933 28.1233 29.9958C28.1233 29.4982 28.3209 29.021 28.6727 28.6692L35.1696 22.1723C33.4089 21.0078 31.3067 20.4717 29.2033 20.6506C27.0999 20.8296 25.1185 21.7132 23.5798 23.1584C22.0411 24.6036 21.0352 26.5258 20.7249 28.6138C20.4146 30.7019 20.8181 32.8335 21.87 34.6637C22.922 36.4939 24.5608 37.9155 26.5213 38.6984C28.4817 39.4812 30.649 39.5795 32.6723 38.9774C34.6955 38.3752 36.4564 37.1078 37.6697 35.3804C38.883 33.653 39.4779 31.5666 39.3579 29.459C39.344 29.2128 39.3788 28.9663 39.4603 28.7335C39.5417 28.5007 39.6682 28.2862 39.8325 28.1023C39.9968 27.9184 40.1957 27.7687 40.4179 27.6617C40.6401 27.5546 40.8812 27.4924 41.1274 27.4786C41.6247 27.4506 42.1127 27.6213 42.4841 27.9532C42.668 28.1175 42.8178 28.3164 42.9248 28.5386C43.0318 28.7608 43.094 29.0019 43.1079 29.2481C43.2788 32.2312 42.4268 35.1833 40.6926 37.6165C38.9585 40.0498 36.446 41.8184 33.5704 42.6303C30.6948 43.4421 27.6283 43.2484 24.8777 42.0813C22.1271 40.9142 19.8571 38.8435 18.4428 36.2114C17.0285 33.5794 16.5546 30.5435 17.0994 27.6057C17.6443 24.6678 19.1753 22.0038 21.4393 20.0539C23.7034 18.104 26.565 16.985 29.5511 16.8818C32.5373 16.7786 35.4693 17.6974 37.8626 19.4864L43.1946 14.1544C39.2871 10.9101 34.3188 9.22395 29.2438 9.41968C24.1688 9.61542 19.3451 11.6793 15.6991 15.2148C12.0531 18.7504 9.84189 23.5083 9.49018 28.5749C9.13846 33.6414 10.671 38.6593 13.7936 42.6647C16.9161 46.6701 21.4084 49.3807 26.4076 50.2757C31.4069 51.1708 36.5605 50.1873 40.8788 47.5141C45.1971 44.8409 48.3755 40.6665 49.8035 35.7926C51.2315 30.9188 50.8085 25.6892 48.6157 21.1083C48.4012 20.6595 48.3739 20.1439 48.5396 19.6749C48.7053 19.2059 49.0505 18.8219 49.4993 18.6075C49.9481 18.393 50.4637 18.3656 50.9327 18.5313C51.4017 18.6971 51.7856 19.0423 52.0001 19.4911Z" fill="#3A27B5"/>
</svg>
