<svg width="60" height="60" viewBox="0 0 60 60" fill="none" xmlns="http://www.w3.org/2000/svg">
<path d="M57.3757 35.2499C57.1787 35.3977 56.9546 35.5052 56.716 35.5663C56.4775 35.6274 56.2293 35.6409 55.9855 35.6061C55.7418 35.5713 55.5073 35.4888 55.2954 35.3633C55.0835 35.2379 54.8985 35.0719 54.7507 34.8749C53.6206 33.3559 52.1496 32.1233 50.4561 31.2766C48.7627 30.4299 46.894 29.9926 45.0007 29.9999C44.632 29.9999 44.2715 29.8912 43.9643 29.6873C43.657 29.4835 43.4167 29.1935 43.2734 28.8538C43.176 28.6232 43.1259 28.3753 43.1259 28.1249C43.1259 27.8746 43.176 27.6267 43.2734 27.396C43.4167 27.0563 43.657 26.7664 43.9643 26.5626C44.2715 26.3587 44.632 26.25 45.0007 26.2499C46.0528 26.2498 47.0837 25.9547 47.9764 25.3981C48.8691 24.8414 49.5879 24.0456 50.051 23.101C50.514 22.1563 50.7029 21.1008 50.5962 20.0541C50.4894 19.0075 50.0913 18.0118 49.447 17.1801C48.8027 16.3485 47.9381 15.7141 46.9514 15.3492C45.9647 14.9843 44.8954 14.9034 43.865 15.1157C42.8346 15.328 41.8844 15.825 41.1223 16.5503C40.3603 17.2756 39.8168 18.2 39.5538 19.2187C39.4923 19.4572 39.3843 19.6813 39.2362 19.8781C39.088 20.0749 38.9026 20.2406 38.6904 20.3658C38.4782 20.4909 38.2434 20.573 37.9995 20.6075C37.7555 20.6419 37.5072 20.6279 37.2687 20.5663C37.0301 20.5048 36.8061 20.3968 36.6093 20.2487C36.4124 20.1005 36.2467 19.9151 36.1216 19.7029C35.9964 19.4907 35.9143 19.2559 35.8799 19.012C35.8455 18.768 35.8595 18.5197 35.921 18.2812C36.2861 16.8686 36.9758 15.5608 37.9352 14.4617C38.8947 13.3626 40.0974 12.5026 41.4477 11.9501C42.798 11.3977 44.2586 11.168 45.7133 11.2793C47.168 11.3906 48.5766 11.84 49.8271 12.5915C51.0776 13.3431 52.1354 14.3761 52.9164 15.6084C53.6974 16.8407 54.18 18.2383 54.3259 19.69C54.4717 21.1416 54.2767 22.6073 53.7564 23.9703C53.2361 25.3333 52.4049 26.5561 51.3288 27.5413C53.8784 28.6452 56.0947 30.397 57.7577 32.6226C57.9055 32.8201 58.0128 33.0448 58.0736 33.2838C58.1343 33.5228 58.1473 33.7715 58.1118 34.0155C58.0763 34.2596 57.9931 34.4942 57.8667 34.7061C57.7404 34.9179 57.5736 35.1027 57.3757 35.2499ZM44.7476 49.6874C44.8832 49.9008 44.9743 50.1395 45.0154 50.389C45.0564 50.6385 45.0466 50.8938 44.9864 51.1394C44.9262 51.385 44.817 51.6159 44.6653 51.8182C44.5136 52.0206 44.3225 52.1901 44.1036 52.3166C43.8846 52.4432 43.6424 52.5241 43.3913 52.5546C43.1403 52.5851 42.8857 52.5645 42.6428 52.4941C42.4 52.4236 42.1739 52.3048 41.9781 52.1447C41.7824 51.9845 41.6211 51.7865 41.5038 51.5624C40.3227 49.5624 38.6405 47.905 36.6233 46.7535C34.606 45.6021 32.3234 44.9965 30.0007 44.9965C27.678 44.9965 25.3954 45.6021 23.3782 46.7535C21.3609 47.905 19.6787 49.5624 18.4976 51.5624C18.3804 51.7865 18.219 51.9845 18.0233 52.1447C17.8276 52.3048 17.6015 52.4236 17.3586 52.4941C17.1157 52.5645 16.8611 52.5851 16.6101 52.5546C16.3591 52.5241 16.1168 52.4432 15.8978 52.3166C15.6789 52.1901 15.4878 52.0206 15.3361 51.8182C15.1844 51.6159 15.0752 51.385 15.015 51.1394C14.9549 50.8938 14.945 50.6385 14.986 50.389C15.0271 50.1395 15.1182 49.9008 15.2538 49.6874C17.0716 46.5641 19.8434 44.1062 23.1616 42.6749C21.2944 41.2453 19.9222 39.2665 19.2377 37.0167C18.5533 34.7669 18.5911 32.3591 19.3458 30.1319C20.1005 27.9047 21.5343 25.9699 23.4454 24.5996C25.3566 23.2294 27.6491 22.4924 30.0007 22.4924C32.3523 22.4924 34.6449 23.2294 36.556 24.5996C38.4672 25.9699 39.9009 27.9047 40.6556 30.1319C41.4103 32.3591 41.4481 34.7669 40.7637 37.0167C40.0792 39.2665 38.707 41.2453 36.8398 42.6749C40.1581 44.1062 42.9298 46.5641 44.7476 49.6874ZM30.0007 41.2499C31.4841 41.2499 32.9341 40.8101 34.1675 39.986C35.4009 39.1618 36.3622 37.9905 36.9298 36.6201C37.4975 35.2496 37.646 33.7416 37.3566 32.2868C37.0672 30.8319 36.3529 29.4955 35.304 28.4466C34.2551 27.3977 32.9187 26.6834 31.4639 26.394C30.009 26.1047 28.501 26.2532 27.1306 26.8208C25.7601 27.3885 24.5888 28.3498 23.7647 29.5832C22.9406 30.8165 22.5007 32.2666 22.5007 33.7499C22.5007 35.7391 23.2909 37.6467 24.6974 39.0532C26.1039 40.4598 28.0116 41.2499 30.0007 41.2499ZM16.8757 28.1249C16.8757 27.6276 16.6782 27.1507 16.3265 26.7991C15.9749 26.4475 15.498 26.2499 15.0007 26.2499C13.9487 26.2498 12.9177 25.9547 12.025 25.3981C11.1323 24.8414 10.4136 24.0456 9.95047 23.101C9.48738 22.1563 9.29848 21.1008 9.40524 20.0541C9.51199 19.0075 9.91012 18.0118 10.5544 17.1801C11.1987 16.3485 12.0633 15.7141 13.05 15.3492C14.0367 14.9843 15.106 14.9034 16.1364 15.1157C17.1668 15.328 18.117 15.825 18.8791 16.5503C19.6412 17.2756 20.1846 18.2 20.4476 19.2187C20.5719 19.7004 20.8825 20.113 21.3111 20.3658C21.7396 20.6185 22.251 20.6907 22.7327 20.5663C23.2145 20.442 23.6271 20.1314 23.8798 19.7029C24.1326 19.2743 24.2047 18.7629 24.0804 18.2812C23.7153 16.8686 23.0257 15.5608 22.0662 14.4617C21.1068 13.3626 19.904 12.5026 18.5537 11.9501C17.2034 11.3977 15.7428 11.168 14.2881 11.2793C12.8334 11.3906 11.4248 11.84 10.1743 12.5915C8.9238 13.3431 7.86597 14.3761 7.08498 15.6084C6.30398 16.8407 5.82138 18.2383 5.67556 19.69C5.52974 21.1416 5.72474 22.6073 6.24503 23.9703C6.76533 25.3333 7.59656 26.5561 8.67259 27.5413C6.12559 28.6463 3.91176 30.398 2.25071 32.6226C1.95203 33.0204 1.82362 33.5206 1.89373 34.0131C1.96383 34.5056 2.22671 34.9501 2.62454 35.2488C3.02236 35.5474 3.52254 35.6759 4.01505 35.6057C4.50755 35.5356 4.95203 35.2728 5.25071 34.8749C6.38084 33.3559 7.85184 32.1233 9.5453 31.2766C11.2388 30.4299 13.1074 29.9926 15.0007 29.9999C15.498 29.9999 15.9749 29.8024 16.3265 29.4508C16.6782 29.0991 16.8757 28.6222 16.8757 28.1249Z" fill="#3A27B5"/>
</svg>
